# xmcd
#
# Track frame offsets:
#	300
#	26684
#	41508
#	61372
#	70980
#	85832
#	100868
#	116196
#
# Disc length: 1746 seconds
#
# Revision: 0
# Processed by: cddbd v1.5.1PL0 Copyright (c) Steve Scherf et al.
# Submitted via: dBpowerAMP V4.0
#
DISCID=6b06ce08
DTITLE=Page, Williamson and Auger - Don't Send Me No Flowers
DYEAR=1900
DGENRE=Blues
TTITLE0=Don't Send Me No Flowers
TTITLE1=I See A Man Downstairs
TTITLE2=She Was So Dumb
TTITLE3=The Goat
TTITLE4=Walking
TTITLE5=Little Girl, How Old Are You
TTITLE6=It's A Bloody Life
TTITLE7=Getting Out Of Town
EXTD=
EXTT0=
EXTT1=
EXTT2=
EXTT3=
EXTT4=
EXTT5=
EXTT6=
EXTT7=
PLAYORDER=
